<?xml version="1.0" encoding="UTF-8" standalone="no"?>
<svg
   xmlns:dc="http://purl.org/dc/elements/1.1/"
   xmlns:cc="http://creativecommons.org/ns#"
   xmlns:rdf="http://www.w3.org/1999/02/22-rdf-syntax-ns#"
   xmlns:svg="http://www.w3.org/2000/svg"
   xmlns="http://www.w3.org/2000/svg"
   xmlns:sodipodi="http://sodipodi.sourceforge.net/DTD/sodipodi-0.dtd"
   xmlns:inkscape="http://www.inkscape.org/namespaces/inkscape"
   aria-hidden="true"
   focusable="false"
   data-prefix="fas"
   data-icon="bars"
   class="svg-inline--fa fa-bars fa-w-14"
   role="img"
   viewBox="0 0 448 512"
   id="svg2"
   version="1.1"
   inkscape:version="0.48.1 "
   width="100%"
   height="100%"
   sodipodi:docname="barra.svg">
  <metadata
     id="metadata10">
    <rdf:RDF>
      <cc:Work
         rdf:about="">
        <dc:format>image/svg+xml</dc:format>
        <dc:type
           rdf:resource="http://purl.org/dc/dcmitype/StillImage" />
      </cc:Work>
    </rdf:RDF>
  </metadata>
  <defs
     id="defs8" />
  <sodipodi:namedview
     pagecolor="#DB9396"
     bordercolor="#666666"
     borderopacity="1"
     objecttolerance="10"
     gridtolerance="10"
     guidetolerance="10"
     inkscape:pageopacity="0"
     inkscape:pageshadow="2"
     inkscape:window-width="1366"
     inkscape:window-height="706"
     id="namedview6"
     showgrid="False"
     inkscape:zoom="0.56835938"
     inkscape:cx="224"
     inkscape:cy="256"
     inkscape:window-x="-8"
     inkscape:window-y="-8"
     inkscape:window-maximized="1"
     inkscape:current-layer="svg2"></sodipodi:namedview>
  <path
     d="m 16,132 h 416 c 8.837,0 16,-7.163 16,-16 V 76 c 0,-8.837 -7.163,-16 -16,-16 H 16 C 7.163,60 0,67.163 0,76 v 40 c 0,8.837 7.163,16 16,16 z m 0,160 h 416 c 8.837,0 16,-7.163 16,-16 v -40 c 0,-8.837 -7.163,-16 -16,-16 H 16 c -8.837,0 -16,7.163 -16,16 v 40 c 0,8.837 7.163,16 16,16 z m 0,160 h 416 c 8.837,0 16,-7.163 16,-16 v -40 c 0,-8.837 -7.163,-16 -16,-16 H 16 c -8.837,0 -16,7.163 -16,16 v 40 c 0,8.837 7.163,16 16,16 z"
     id="path4"
     style="fill:#ff0000"
     inkscape:connector-curvature="0" />
</svg>
